name C:\Users\u0101727\Documents\MyRepositories\upper-imu-dc\Results\main_tracking\Case_44\FLX01_angularVelocities_groundFrame.mot
datacolumns 4
datarows 105
range 5.01000000 6.05000000
endheader 
time	radius_imu_x	radius_imu_y	radius_imu_z	
          5.01000000	          0.78205065	          0.00774666	         -1.19402695	
          5.02000000	          0.76999968	          0.04149960	         -1.17562524	
          5.03000000	          0.75780371	          0.07575029	         -1.15706914	
          5.04000000	          0.74545707	          0.11012639	         -1.13859411	
          5.05000000	          0.73408630	          0.14438684	         -1.12000486	
          5.06000000	          0.72785611	          0.17836648	         -1.10068673	
          5.07000000	          0.72228726	          0.21411619	         -1.08344534	
          5.08000000	          0.70569943	          0.23928993	         -1.07039351	
          5.09000000	          0.68876111	          0.26723206	         -1.06710555	
          5.10000000	          0.68194348	          0.29588631	         -1.05495180	
          5.11000000	          0.72874726	          0.35645937	         -1.06118589	
          5.12000000	          0.74641548	          0.41362246	         -1.05588558	
          5.13000000	          0.74529067	          0.45937910	         -1.06120649	
          5.14000000	          0.74583631	          0.50577151	         -1.06147347	
          5.15000000	          0.74413642	          0.55112967	         -1.06267689	
          5.16000000	          0.74121239	          0.59561015	         -1.06302213	
          5.17000000	          0.73695395	          0.63914406	         -1.06293867	
          5.18000000	          0.73168991	          0.68149094	         -1.06263189	
          5.19000000	          0.72568290	          0.72238572	         -1.06222603	
          5.20000000	          0.71914373	          0.76168037	         -1.06165522	
          5.21000000	          0.71220943	          0.79926392	         -1.06084601	
          5.22000000	          0.70504081	          0.83496081	         -1.05967844	
          5.23000000	          0.69779709	          0.86859999	         -1.05805447	
          5.24000000	          0.69061129	          0.90003875	         -1.05590933	
          5.25000000	          0.68359189	          0.92915425	         -1.05319094	
          5.26000000	          0.67680651	          0.95587748	         -1.04987635	
          5.27000000	          0.67029079	          0.98018471	         -1.04596984	
          5.28000000	          0.66406636	          1.00207143	         -1.04151340	
          5.29000000	          0.65815124	          1.02154826	         -1.03659339	
          5.30000000	          0.65256262	          1.03864768	         -1.03132229	
          5.31000000	          0.64731573	          1.05342714	         -1.02582425	
          5.32000000	          0.64242224	          1.06596407	         -1.02022837	
          5.33000000	          0.63788557	          1.07635239	         -1.01466040	
          5.34000000	          0.63369589	          1.08470364	         -1.00923398	
          5.35000000	          0.62982458	          1.09115018	         -1.00404542	
          5.36000000	          0.62621994	          1.09584743	         -0.99917169	
          5.37000000	          0.62280784	          1.09897268	         -0.99467104	
          5.38000000	          0.61949624	          1.10072360	         -0.99058808	
          5.39000000	          0.61618235	          1.10131762	         -0.98696105	
          5.40000000	          0.61276119	          1.10099138	         -0.98382865	
          5.41000000	          0.60913281	          1.10000053	         -0.98123524	
          5.42000000	          0.60520640	          1.09861974	         -0.97923267	
          5.43000000	          0.60090144	          1.09714176	         -0.97787889	
          5.44000000	          0.59614733	          1.09587554	         -0.97723476	
          5.45000000	          0.59088321	          1.09514280	         -0.97736067	
          5.46000000	          0.58505945	          1.09527285	         -0.97831364	
          5.47000000	          0.57864031	          1.09659581	         -0.98014484	
          5.48000000	          0.57160677	          1.09943542	         -0.98289691	
          5.49000000	          0.56395856	          1.10410197	         -0.98660077	
          5.50000000	          0.55571484	          1.11088626	         -0.99127216	
          5.51000000	          0.54691359	          1.12005451	         -0.99690833	
          5.52000000	          0.53761048	          1.13184424	         -1.00348536	
          5.53000000	          0.52787793	          1.14645991	         -1.01095624	
          5.54000000	          0.51780472	          1.16406832	         -1.01924971	
          5.55000000	          0.50749560	          1.18479300	         -1.02826911	
          5.56000000	          0.49707068	          1.20870787	         -1.03789106	
          5.57000000	          0.48666457	          1.23582995	         -1.04796445	
          5.58000000	          0.47642536	          1.26611197	         -1.05831028	
          5.59000000	          0.46651329	          1.29943603	         -1.06872304	
          5.60000000	          0.45709830	          1.33560966	         -1.07897317	
          5.61000000	          0.44835512	          1.37436482	         -1.08880961	
          5.62000000	          0.44045513	          1.41536078	         -1.09796270	
          5.63000000	          0.43355561	          1.45819162	         -1.10614827	
          5.64000000	          0.42778956	          1.50239766	         -1.11307531	
          5.65000000	          0.42325903	          1.54748098	         -1.11845766	
          5.66000000	          0.42003205	          1.59292604	         -1.12202900	
          5.67000000	          0.41814037	          1.63822569	         -1.12356039	
          5.68000000	          0.41757719	          1.68290908	         -1.12287675	
          5.69000000	          0.41829630	          1.72656733	         -1.11986722	
          5.70000000	          0.42021285	          1.76887050	         -1.11448645	
          5.71000000	          0.42320758	          1.80957202	         -1.10674997	
          5.72000000	          0.42713392	          1.84849988	         -1.09671943	
          5.73000000	          0.43182508	          1.88553609	         -1.08448527	
          5.74000000	          0.43709915	          1.92060001	         -1.07015549	
          5.75000000	          0.44277020	          1.95362466	         -1.05384023	
          5.76000000	          0.44865483	          1.98454116	         -1.03564774	
          5.77000000	          0.45457728	          2.01327757	         -1.01568964	
          5.78000000	          0.46037817	          2.03974873	         -0.99407656	
          5.79000000	          0.46591340	          2.06386245	         -0.97092321	
          5.80000000	          0.47105084	          2.08553528	         -0.94635660	
          5.81000000	          0.47566997	          2.10470027	         -0.92051475	
          5.82000000	          0.47965930	          2.12132097	         -0.89354733	
          5.83000000	          0.48291327	          2.13541189	         -0.86561931	
          5.84000000	          0.48533242	          2.14705176	         -0.83690976	
          5.85000000	          0.48682362	          2.15639115	         -0.80760762	
          5.86000000	          0.48730001	          2.16365520	         -0.77790614	
          5.87000000	          0.48668108	          2.16913843	         -0.74799496	
          5.88000000	          0.48489305	          2.17319381	         -0.71805173	
          5.89000000	          0.48187019	          2.17621884	         -0.68823600	
          5.90000000	          0.47755759	          2.17863893	         -0.65868537	
          5.91000000	          0.47191499	          2.18088850	         -0.62951351	
          5.92000000	          0.46492118	          2.18338976	         -0.60081010	
          5.93000000	          0.45657930	          2.18653118	         -0.57264197	
          5.94000000	          0.44692207	          2.19064971	         -0.54505676	
          5.95000000	          0.43601615	          2.19601691	         -0.51809121	
          5.96000000	          0.42396243	          2.20283303	         -0.49177633	
          5.97000000	          0.41089241	          2.21122644	         -0.46614088	
          5.98000000	          0.39696182	          2.22125272	         -0.44121495	
          5.99000000	          0.38234203	          2.23289897	         -0.41702901	
          6.00000000	          0.36721021	          2.24609545	         -0.39361080	
          6.01000000	          0.35174153	          2.26072475	         -0.37098157	
          6.02000000	          0.33610634	          2.27662239	         -0.34915866	
          6.03000000	          0.32046592	          2.29358248	         -0.32815344	
          6.04000000	          0.30496744	          2.31136770	         -0.30796506	
          6.05000000	          0.28974298	          2.32970937	         -0.28858827	
